<mxfile host="app.diagrams.net" agent="Mozilla/5.0 (Windows NT 10.0; Win64; x64) AppleWebKit/537.36 (KHTML, like Gecko) Chrome/136.0.0.0 Safari/537.36" version="26.1.0">
  <diagram name="Page-1" id="e3a06f82-3646-2815-327d-82caf3d4e204">
    <mxGraphModel dx="2950.5" dy="822" grid="1" gridSize="10" guides="1" tooltips="1" connect="1" arrows="1" fold="1" page="1" pageScale="1.5" pageWidth="1169" pageHeight="826" background="none" math="0" shadow="0">
      <root>
        <mxCell id="0" style=";html=1;" />
        <mxCell id="1" style=";html=1;" parent="0" />
        <mxCell id="ifr2l9wg8Xfpjjbt6OwT-125" value="Application Layer" style="whiteSpace=wrap;html=1;fillColor=#FFD470;gradientColor=none;fontSize=14;strokeColor=none;verticalAlign=top;" vertex="1" parent="1">
          <mxGeometry x="-32.49" y="108" width="308" height="680" as="geometry" />
        </mxCell>
        <mxCell id="ifr2l9wg8Xfpjjbt6OwT-2" value="" style="outlineConnect=0;dashed=0;verticalLabelPosition=bottom;verticalAlign=top;align=center;html=1;shape=mxgraph.aws3.management_console;fillColor=#D2D3D3;gradientColor=none;" vertex="1" parent="1">
          <mxGeometry x="22.760000000000005" y="230" width="163" height="163" as="geometry" />
        </mxCell>
        <mxCell id="ifr2l9wg8Xfpjjbt6OwT-4" value="" style="endArrow=classic;html=1;rounded=0;entryX=0.29;entryY=0.982;entryDx=0;entryDy=0;entryPerimeter=0;" edge="1" parent="1" target="ifr2l9wg8Xfpjjbt6OwT-2">
          <mxGeometry width="50" height="50" relative="1" as="geometry">
            <mxPoint x="70" y="610" as="sourcePoint" />
            <mxPoint x="75.00999999999976" y="400" as="targetPoint" />
          </mxGeometry>
        </mxCell>
        <mxCell id="ifr2l9wg8Xfpjjbt6OwT-6" value="&lt;font style=&quot;font-size: 13px;&quot;&gt;Google.com&lt;/font&gt;" style="text;strokeColor=none;align=center;fillColor=none;html=1;verticalAlign=middle;whiteSpace=wrap;rounded=0;" vertex="1" parent="1">
          <mxGeometry x="64.25999999999999" y="240" width="80" height="30" as="geometry" />
        </mxCell>
        <mxCell id="ifr2l9wg8Xfpjjbt6OwT-7" value="&lt;font style=&quot;font-size: 17px;&quot;&gt;Google.com&lt;/font&gt;" style="text;strokeColor=none;align=center;fillColor=none;html=1;verticalAlign=middle;whiteSpace=wrap;rounded=0;rotation=-90;" vertex="1" parent="1">
          <mxGeometry x="100" y="480" width="80" height="30" as="geometry" />
        </mxCell>
        <mxCell id="ifr2l9wg8Xfpjjbt6OwT-8" value="&lt;font style=&quot;font-size: 18px;&quot;&gt;8.8.8.8&lt;/font&gt;" style="text;strokeColor=none;align=center;fillColor=none;html=1;verticalAlign=middle;whiteSpace=wrap;rounded=0;rotation=90;" vertex="1" parent="1">
          <mxGeometry x="20" y="492" width="80" height="30" as="geometry" />
        </mxCell>
        <mxCell id="ifr2l9wg8Xfpjjbt6OwT-9" value="" style="endArrow=classic;html=1;rounded=0;exitX=1;exitY=0.145;exitDx=0;exitDy=0;exitPerimeter=0;" edge="1" parent="1">
          <mxGeometry width="50" height="50" relative="1" as="geometry">
            <mxPoint x="1205.7600000000002" y="257.635" as="sourcePoint" />
            <mxPoint x="1509" y="261" as="targetPoint" />
          </mxGeometry>
        </mxCell>
        <mxCell id="ifr2l9wg8Xfpjjbt6OwT-11" value="" style="image;html=1;image=img/lib/clip_art/networking/Wireless_Router_128x128.png" vertex="1" parent="1">
          <mxGeometry x="1510" y="249" width="160" height="120" as="geometry" />
        </mxCell>
        <mxCell id="ifr2l9wg8Xfpjjbt6OwT-12" value="&lt;font style=&quot;color: rgb(255, 87, 45); font-size: 15px;&quot;&gt;&lt;b style=&quot;&quot;&gt;ARP&lt;/b&gt;&lt;/font&gt;" style="text;strokeColor=none;align=center;fillColor=none;html=1;verticalAlign=middle;whiteSpace=wrap;rounded=0;" vertex="1" parent="1">
          <mxGeometry x="1320" y="225" width="60" height="30" as="geometry" />
        </mxCell>
        <mxCell id="ifr2l9wg8Xfpjjbt6OwT-18" value="" style="endArrow=classic;html=1;rounded=0;exitX=0;exitY=0.611;exitDx=0;exitDy=0;exitPerimeter=0;" edge="1" parent="1" source="ifr2l9wg8Xfpjjbt6OwT-20">
          <mxGeometry width="50" height="50" relative="1" as="geometry">
            <mxPoint x="1490" y="308" as="sourcePoint" />
            <mxPoint x="1200" y="299" as="targetPoint" />
            <Array as="points" />
          </mxGeometry>
        </mxCell>
        <mxCell id="ifr2l9wg8Xfpjjbt6OwT-19" value="00:15:5d:7f:6e:3b" style="text;strokeColor=none;align=center;fillColor=none;html=1;verticalAlign=middle;whiteSpace=wrap;rounded=0;" vertex="1" parent="1">
          <mxGeometry x="1280" y="274" width="140" height="30" as="geometry" />
        </mxCell>
        <mxCell id="ifr2l9wg8Xfpjjbt6OwT-20" value="" style="image;html=1;image=img/lib/clip_art/networking/Wireless_Router_128x128.png" vertex="1" parent="1">
          <mxGeometry x="1510" y="194" width="220" height="180" as="geometry" />
        </mxCell>
        <mxCell id="ifr2l9wg8Xfpjjbt6OwT-23" value="" style="endArrow=classic;html=1;rounded=0;entryX=-0.009;entryY=0.799;entryDx=0;entryDy=0;entryPerimeter=0;exitX=1;exitY=0.623;exitDx=0;exitDy=0;exitPerimeter=0;" edge="1" parent="1" target="ifr2l9wg8Xfpjjbt6OwT-20">
          <mxGeometry width="50" height="50" relative="1" as="geometry">
            <mxPoint x="1205.7600000000002" y="335.549" as="sourcePoint" />
            <mxPoint x="1540" y="549" as="targetPoint" />
          </mxGeometry>
        </mxCell>
        <mxCell id="ifr2l9wg8Xfpjjbt6OwT-25" value="&lt;font style=&quot;font-size: 14px; color: rgb(17, 73, 255);&quot;&gt;Packet&lt;/font&gt;" style="text;strokeColor=none;align=center;fillColor=none;html=1;verticalAlign=middle;whiteSpace=wrap;rounded=0;" vertex="1" parent="1">
          <mxGeometry x="1330" y="334" width="60" height="30" as="geometry" />
        </mxCell>
        <mxCell id="ifr2l9wg8Xfpjjbt6OwT-26" value="&lt;font style=&quot;color: rgb(10, 26, 255);&quot;&gt;[Src IP | Dst IP] + [Src Port | Dst Port | Data]&lt;/font&gt;" style="text;html=1;align=center;verticalAlign=middle;resizable=0;points=[];autosize=1;strokeColor=none;fillColor=none;" vertex="1" parent="1">
          <mxGeometry x="1250" y="465.25" width="260" height="30" as="geometry" />
        </mxCell>
        <mxCell id="ifr2l9wg8Xfpjjbt6OwT-27" value="" style="shape=curlyBracket;whiteSpace=wrap;html=1;rounded=1;labelPosition=left;verticalLabelPosition=middle;align=right;verticalAlign=middle;" vertex="1" parent="1">
          <mxGeometry x="1250" y="463.5" width="20" height="40" as="geometry" />
        </mxCell>
        <mxCell id="ifr2l9wg8Xfpjjbt6OwT-28" value="" style="shape=curlyBracket;whiteSpace=wrap;html=1;rounded=1;flipH=1;labelPosition=right;verticalLabelPosition=middle;align=left;verticalAlign=middle;size=0.5;" vertex="1" parent="1">
          <mxGeometry x="1490" y="460" width="20" height="43.5" as="geometry" />
        </mxCell>
        <mxCell id="ifr2l9wg8Xfpjjbt6OwT-29" value="" style="shape=flexArrow;endArrow=classic;html=1;rounded=0;exitX=0.5;exitY=1;exitDx=0;exitDy=0;" edge="1" parent="1" source="ifr2l9wg8Xfpjjbt6OwT-25">
          <mxGeometry width="50" height="50" relative="1" as="geometry">
            <mxPoint x="1380" y="459" as="sourcePoint" />
            <mxPoint x="1360" y="450" as="targetPoint" />
          </mxGeometry>
        </mxCell>
        <mxCell id="ifr2l9wg8Xfpjjbt6OwT-30" value="" style="image;html=1;image=img/lib/clip_art/networking/Wireless_Router_128x128.png" vertex="1" parent="1">
          <mxGeometry x="1940" y="194" width="220" height="180" as="geometry" />
        </mxCell>
        <mxCell id="ifr2l9wg8Xfpjjbt6OwT-31" value="" style="endArrow=classic;html=1;rounded=0;exitX=1;exitY=0.145;exitDx=0;exitDy=0;exitPerimeter=0;" edge="1" parent="1">
          <mxGeometry width="50" height="50" relative="1" as="geometry">
            <mxPoint x="1730" y="261" as="sourcePoint" />
            <mxPoint x="1909" y="261" as="targetPoint" />
          </mxGeometry>
        </mxCell>
        <mxCell id="ifr2l9wg8Xfpjjbt6OwT-32" value="&lt;font style=&quot;color: rgb(255, 87, 45); font-size: 15px;&quot;&gt;&lt;b style=&quot;&quot;&gt;ARP&lt;/b&gt;&lt;/font&gt;" style="text;strokeColor=none;align=center;fillColor=none;html=1;verticalAlign=middle;whiteSpace=wrap;rounded=0;" vertex="1" parent="1">
          <mxGeometry x="1780" y="230.5" width="60" height="30" as="geometry" />
        </mxCell>
        <mxCell id="ifr2l9wg8Xfpjjbt6OwT-33" value="" style="endArrow=classic;html=1;rounded=0;exitX=0;exitY=0.583;exitDx=0;exitDy=0;exitPerimeter=0;" edge="1" parent="1">
          <mxGeometry width="50" height="50" relative="1" as="geometry">
            <mxPoint x="1910" y="299" as="sourcePoint" />
            <mxPoint x="1730" y="299" as="targetPoint" />
            <Array as="points" />
          </mxGeometry>
        </mxCell>
        <mxCell id="ifr2l9wg8Xfpjjbt6OwT-34" value="MAC2 Add" style="text;strokeColor=none;align=center;fillColor=none;html=1;verticalAlign=middle;whiteSpace=wrap;rounded=0;" vertex="1" parent="1">
          <mxGeometry x="1740" y="269" width="140" height="30" as="geometry" />
        </mxCell>
        <mxCell id="ifr2l9wg8Xfpjjbt6OwT-35" value="" style="endArrow=classic;html=1;rounded=0;entryX=-0.009;entryY=0.799;entryDx=0;entryDy=0;entryPerimeter=0;exitX=1;exitY=0.623;exitDx=0;exitDy=0;exitPerimeter=0;" edge="1" parent="1">
          <mxGeometry width="50" height="50" relative="1" as="geometry">
            <mxPoint x="1730" y="339" as="sourcePoint" />
            <mxPoint x="1908" y="338" as="targetPoint" />
          </mxGeometry>
        </mxCell>
        <mxCell id="ifr2l9wg8Xfpjjbt6OwT-36" value="&lt;font style=&quot;font-size: 14px; color: rgb(17, 73, 255);&quot;&gt;Frame&lt;/font&gt;" style="text;strokeColor=none;align=center;fillColor=none;html=1;verticalAlign=middle;whiteSpace=wrap;rounded=0;" vertex="1" parent="1">
          <mxGeometry x="1780" y="339" width="60" height="30" as="geometry" />
        </mxCell>
        <mxCell id="ifr2l9wg8Xfpjjbt6OwT-37" value="&lt;font style=&quot;color: rgb(10, 26, 255);&quot;&gt;mac&#39;s + Ip&#39;s + port + segment + port + ip&#39;r + mac&#39;r&lt;/font&gt;" style="text;html=1;align=center;verticalAlign=middle;resizable=0;points=[];autosize=1;strokeColor=none;fillColor=none;" vertex="1" parent="1">
          <mxGeometry x="1665" y="400.5" width="290" height="30" as="geometry" />
        </mxCell>
        <mxCell id="ifr2l9wg8Xfpjjbt6OwT-38" value="" style="shape=curlyBracket;whiteSpace=wrap;html=1;rounded=1;labelPosition=left;verticalLabelPosition=middle;align=right;verticalAlign=middle;" vertex="1" parent="1">
          <mxGeometry x="1665" y="398.75" width="20" height="40" as="geometry" />
        </mxCell>
        <mxCell id="ifr2l9wg8Xfpjjbt6OwT-39" value="" style="shape=curlyBracket;whiteSpace=wrap;html=1;rounded=1;flipH=1;labelPosition=right;verticalLabelPosition=middle;align=left;verticalAlign=middle;size=0.5;" vertex="1" parent="1">
          <mxGeometry x="1935" y="397" width="20" height="43.5" as="geometry" />
        </mxCell>
        <mxCell id="ifr2l9wg8Xfpjjbt6OwT-40" value="" style="shape=flexArrow;endArrow=classic;html=1;rounded=0;exitX=0.5;exitY=1;exitDx=0;exitDy=0;" edge="1" parent="1" source="ifr2l9wg8Xfpjjbt6OwT-36">
          <mxGeometry width="50" height="50" relative="1" as="geometry">
            <mxPoint x="1780" y="459" as="sourcePoint" />
            <mxPoint x="1810" y="399" as="targetPoint" />
          </mxGeometry>
        </mxCell>
        <mxCell id="ifr2l9wg8Xfpjjbt6OwT-43" value="&lt;font style=&quot;font-size: 15px; color: rgb(255, 20, 20);&quot;&gt;Routing&lt;/font&gt;" style="ellipse;shape=doubleEllipse;whiteSpace=wrap;html=1;" vertex="1" parent="1">
          <mxGeometry x="1560" y="74" width="100" height="60" as="geometry" />
        </mxCell>
        <mxCell id="ifr2l9wg8Xfpjjbt6OwT-44" value="" style="shape=flexArrow;endArrow=classic;html=1;rounded=0;entryX=0.5;entryY=1;entryDx=0;entryDy=0;" edge="1" parent="1" source="ifr2l9wg8Xfpjjbt6OwT-20" target="ifr2l9wg8Xfpjjbt6OwT-43">
          <mxGeometry width="50" height="50" relative="1" as="geometry">
            <mxPoint x="1590" y="204" as="sourcePoint" />
            <mxPoint x="1640" y="154" as="targetPoint" />
            <Array as="points">
              <mxPoint x="1610" y="184" />
            </Array>
          </mxGeometry>
        </mxCell>
        <mxCell id="ifr2l9wg8Xfpjjbt6OwT-64" value="" style="endArrow=classic;html=1;rounded=0;exitX=1;exitY=0.145;exitDx=0;exitDy=0;exitPerimeter=0;" edge="1" parent="1">
          <mxGeometry width="50" height="50" relative="1" as="geometry">
            <mxPoint x="2185" y="244.5" as="sourcePoint" />
            <mxPoint x="2364" y="244.5" as="targetPoint" />
          </mxGeometry>
        </mxCell>
        <mxCell id="ifr2l9wg8Xfpjjbt6OwT-65" value="&lt;font style=&quot;color: rgb(255, 87, 45); font-size: 15px;&quot;&gt;&lt;b style=&quot;&quot;&gt;ARP&lt;/b&gt;&lt;/font&gt;" style="text;strokeColor=none;align=center;fillColor=none;html=1;verticalAlign=middle;whiteSpace=wrap;rounded=0;" vertex="1" parent="1">
          <mxGeometry x="2235" y="214" width="60" height="30" as="geometry" />
        </mxCell>
        <mxCell id="ifr2l9wg8Xfpjjbt6OwT-66" value="" style="endArrow=classic;html=1;rounded=0;exitX=0;exitY=0.583;exitDx=0;exitDy=0;exitPerimeter=0;" edge="1" parent="1">
          <mxGeometry width="50" height="50" relative="1" as="geometry">
            <mxPoint x="2365" y="282.5" as="sourcePoint" />
            <mxPoint x="2185" y="282.5" as="targetPoint" />
            <Array as="points" />
          </mxGeometry>
        </mxCell>
        <mxCell id="ifr2l9wg8Xfpjjbt6OwT-67" value="MAC3 Add" style="text;strokeColor=none;align=center;fillColor=none;html=1;verticalAlign=middle;whiteSpace=wrap;rounded=0;" vertex="1" parent="1">
          <mxGeometry x="2195" y="252.5" width="140" height="30" as="geometry" />
        </mxCell>
        <mxCell id="ifr2l9wg8Xfpjjbt6OwT-68" value="" style="endArrow=classic;html=1;rounded=0;entryX=-0.009;entryY=0.799;entryDx=0;entryDy=0;entryPerimeter=0;exitX=1;exitY=0.623;exitDx=0;exitDy=0;exitPerimeter=0;" edge="1" parent="1">
          <mxGeometry width="50" height="50" relative="1" as="geometry">
            <mxPoint x="2185" y="322.5" as="sourcePoint" />
            <mxPoint x="2363" y="321.5" as="targetPoint" />
          </mxGeometry>
        </mxCell>
        <mxCell id="ifr2l9wg8Xfpjjbt6OwT-69" value="&lt;font style=&quot;font-size: 14px; color: rgb(17, 73, 255);&quot;&gt;Frame&lt;/font&gt;" style="text;strokeColor=none;align=center;fillColor=none;html=1;verticalAlign=middle;whiteSpace=wrap;rounded=0;" vertex="1" parent="1">
          <mxGeometry x="2235" y="322.5" width="60" height="30" as="geometry" />
        </mxCell>
        <mxCell id="ifr2l9wg8Xfpjjbt6OwT-70" value="&lt;font style=&quot;color: rgb(10, 26, 255);&quot;&gt;mac&#39;s + Ip&#39;s + port + segment + port + ip&#39;r + mac&#39;r&lt;/font&gt;" style="text;html=1;align=center;verticalAlign=middle;resizable=0;points=[];autosize=1;strokeColor=none;fillColor=none;" vertex="1" parent="1">
          <mxGeometry x="2120" y="384" width="290" height="30" as="geometry" />
        </mxCell>
        <mxCell id="ifr2l9wg8Xfpjjbt6OwT-71" value="" style="shape=curlyBracket;whiteSpace=wrap;html=1;rounded=1;labelPosition=left;verticalLabelPosition=middle;align=right;verticalAlign=middle;" vertex="1" parent="1">
          <mxGeometry x="2120" y="382.25" width="20" height="40" as="geometry" />
        </mxCell>
        <mxCell id="ifr2l9wg8Xfpjjbt6OwT-72" value="" style="shape=curlyBracket;whiteSpace=wrap;html=1;rounded=1;flipH=1;labelPosition=right;verticalLabelPosition=middle;align=left;verticalAlign=middle;size=0.5;" vertex="1" parent="1">
          <mxGeometry x="2390" y="380.5" width="20" height="43.5" as="geometry" />
        </mxCell>
        <mxCell id="ifr2l9wg8Xfpjjbt6OwT-73" value="" style="shape=flexArrow;endArrow=classic;html=1;rounded=0;exitX=0.5;exitY=1;exitDx=0;exitDy=0;" edge="1" parent="1" source="ifr2l9wg8Xfpjjbt6OwT-69">
          <mxGeometry width="50" height="50" relative="1" as="geometry">
            <mxPoint x="2235" y="442.5" as="sourcePoint" />
            <mxPoint x="2265" y="382.5" as="targetPoint" />
          </mxGeometry>
        </mxCell>
        <mxCell id="ifr2l9wg8Xfpjjbt6OwT-74" value="&lt;font style=&quot;font-size: 15px; color: rgb(255, 20, 20);&quot;&gt;Routing&lt;/font&gt;" style="ellipse;shape=doubleEllipse;whiteSpace=wrap;html=1;" vertex="1" parent="1">
          <mxGeometry x="1970" y="74.25" width="100" height="60" as="geometry" />
        </mxCell>
        <mxCell id="ifr2l9wg8Xfpjjbt6OwT-75" value="" style="shape=flexArrow;endArrow=classic;html=1;rounded=0;entryX=0.5;entryY=1;entryDx=0;entryDy=0;" edge="1" parent="1" target="ifr2l9wg8Xfpjjbt6OwT-74">
          <mxGeometry width="50" height="50" relative="1" as="geometry">
            <mxPoint x="2021" y="194" as="sourcePoint" />
            <mxPoint x="2050" y="154.25" as="targetPoint" />
            <Array as="points">
              <mxPoint x="2020" y="184.25" />
            </Array>
          </mxGeometry>
        </mxCell>
        <mxCell id="ifr2l9wg8Xfpjjbt6OwT-76" value="&lt;b&gt;172.19.0.2&lt;/b&gt;" style="text;html=1;align=center;verticalAlign=middle;resizable=0;points=[];autosize=1;strokeColor=none;fillColor=none;" vertex="1" parent="1">
          <mxGeometry x="59.999999999999986" y="210" width="80" height="30" as="geometry" />
        </mxCell>
        <mxCell id="ifr2l9wg8Xfpjjbt6OwT-77" value="&lt;b&gt;172.19.0.1&lt;/b&gt;" style="text;html=1;align=center;verticalAlign=middle;resizable=0;points=[];autosize=1;strokeColor=none;fillColor=none;" vertex="1" parent="1">
          <mxGeometry x="1580" y="374" width="80" height="30" as="geometry" />
        </mxCell>
        <mxCell id="ifr2l9wg8Xfpjjbt6OwT-78" value="" style="shape=flexArrow;endArrow=classic;html=1;rounded=0;exitX=0.504;exitY=0.956;exitDx=0;exitDy=0;exitPerimeter=0;" edge="1" parent="1" source="ifr2l9wg8Xfpjjbt6OwT-77">
          <mxGeometry width="50" height="50" relative="1" as="geometry">
            <mxPoint x="1400" y="394" as="sourcePoint" />
            <mxPoint x="1620" y="564" as="targetPoint" />
          </mxGeometry>
        </mxCell>
        <mxCell id="ifr2l9wg8Xfpjjbt6OwT-79" value="&lt;font style=&quot;color: rgb(10, 26, 255);&quot;&gt;&lt;b style=&quot;color: rgb(0, 0, 0);&quot;&gt;&lt;span style=&quot;font-weight: 400; text-wrap-mode: wrap;&quot;&gt;00:15:5d:2c:4e:8b&amp;nbsp;&lt;/span&gt;+ 172.19.0.2&amp;nbsp;&lt;/b&gt;+ 222 + segment + 80 +&amp;nbsp;&lt;/font&gt;&lt;b&gt;172.19.0.1 +&amp;nbsp;&lt;/b&gt;&lt;span style=&quot;text-wrap-mode: wrap;&quot;&gt;00:15:5d:7f:6e:3b&lt;/span&gt;" style="text;html=1;align=center;verticalAlign=middle;resizable=0;points=[];autosize=1;strokeColor=none;fillColor=none;" vertex="1" parent="1">
          <mxGeometry x="1375" y="583.5" width="490" height="30" as="geometry" />
        </mxCell>
        <mxCell id="ifr2l9wg8Xfpjjbt6OwT-80" value="" style="shape=curlyBracket;whiteSpace=wrap;html=1;rounded=1;labelPosition=left;verticalLabelPosition=middle;align=right;verticalAlign=middle;" vertex="1" parent="1">
          <mxGeometry x="1360" y="573.5" width="20" height="40" as="geometry" />
        </mxCell>
        <mxCell id="ifr2l9wg8Xfpjjbt6OwT-81" value="" style="shape=curlyBracket;whiteSpace=wrap;html=1;rounded=1;flipH=1;labelPosition=right;verticalLabelPosition=middle;align=left;verticalAlign=middle;size=0.5;" vertex="1" parent="1">
          <mxGeometry x="1850" y="580.75" width="20" height="35.5" as="geometry" />
        </mxCell>
        <mxCell id="ifr2l9wg8Xfpjjbt6OwT-86" value="" style="image;html=1;image=img/lib/clip_art/computers/Server_Rack_128x128.png" vertex="1" parent="1">
          <mxGeometry x="2460" y="159" width="240" height="330" as="geometry" />
        </mxCell>
        <mxCell id="ifr2l9wg8Xfpjjbt6OwT-87" value="&lt;font style=&quot;font-size: 14px; color: rgb(255, 0, 34);&quot;&gt;&lt;b&gt;Google Server&lt;/b&gt;&lt;/font&gt;" style="text;html=1;align=center;verticalAlign=middle;resizable=0;points=[];autosize=1;strokeColor=none;fillColor=none;" vertex="1" parent="1">
          <mxGeometry x="2520" y="484" width="120" height="30" as="geometry" />
        </mxCell>
        <mxCell id="ifr2l9wg8Xfpjjbt6OwT-88" value="&lt;font&gt;&lt;b&gt;&lt;span style=&quot;font-weight: 400; text-wrap-mode: wrap;&quot;&gt;&lt;font style=&quot;color: rgb(255, 0, 0);&quot;&gt;MAC2&amp;nbsp;&lt;/font&gt;&lt;/span&gt;&lt;font style=&quot;color: rgb(255, 0, 0);&quot;&gt;+ &lt;/font&gt;&lt;font style=&quot;color: rgb(0, 0, 0);&quot;&gt;172.19.0.8&lt;/font&gt;&lt;font style=&quot;color: rgb(255, 0, 0);&quot;&gt;&amp;nbsp;&lt;/font&gt;&lt;/b&gt;&lt;font style=&quot;color: rgb(255, 0, 0);&quot;&gt;+ &lt;/font&gt;&lt;font style=&quot;color: rgb(0, 102, 0);&quot;&gt;222 &lt;/font&gt;&lt;font style=&quot;color: rgb(255, 0, 0);&quot;&gt;+ &lt;/font&gt;&lt;font style=&quot;color: rgb(0, 76, 153);&quot;&gt;segment &lt;/font&gt;&lt;font style=&quot;color: rgb(255, 0, 0);&quot;&gt;+ &lt;/font&gt;&lt;font style=&quot;color: rgb(0, 102, 0);&quot;&gt;80 &lt;/font&gt;&lt;font style=&quot;color: rgb(255, 0, 0);&quot;&gt;+&amp;nbsp;&lt;/font&gt;&lt;/font&gt;&lt;b&gt;8.8.8.8 +&amp;nbsp;&lt;/b&gt;&lt;span style=&quot;text-wrap-mode: wrap;&quot;&gt;&lt;font style=&quot;color: rgb(255, 2, 2);&quot;&gt;MAC3&lt;/font&gt;&lt;/span&gt;" style="text;html=1;align=center;verticalAlign=middle;resizable=0;points=[];autosize=1;strokeColor=none;fillColor=none;" vertex="1" parent="1">
          <mxGeometry x="2095" y="580.75" width="350" height="30" as="geometry" />
        </mxCell>
        <mxCell id="ifr2l9wg8Xfpjjbt6OwT-89" value="" style="shape=curlyBracket;whiteSpace=wrap;html=1;rounded=1;labelPosition=left;verticalLabelPosition=middle;align=right;verticalAlign=middle;" vertex="1" parent="1">
          <mxGeometry x="2095" y="573.5" width="20" height="40" as="geometry" />
        </mxCell>
        <mxCell id="ifr2l9wg8Xfpjjbt6OwT-90" value="" style="shape=curlyBracket;whiteSpace=wrap;html=1;rounded=1;flipH=1;labelPosition=right;verticalLabelPosition=middle;align=left;verticalAlign=middle;size=0.5;" vertex="1" parent="1">
          <mxGeometry x="2425" y="575.25" width="20" height="35.5" as="geometry" />
        </mxCell>
        <mxCell id="ifr2l9wg8Xfpjjbt6OwT-91" value="" style="shape=flexArrow;endArrow=classic;html=1;rounded=0;exitX=0.504;exitY=0.956;exitDx=0;exitDy=0;exitPerimeter=0;" edge="1" parent="1">
          <mxGeometry width="50" height="50" relative="1" as="geometry">
            <mxPoint x="2269.58" y="412.5" as="sourcePoint" />
            <mxPoint x="2269.58" y="573.5" as="targetPoint" />
            <Array as="points">
              <mxPoint x="2269.58" y="483.5" />
            </Array>
          </mxGeometry>
        </mxCell>
        <mxCell id="ifr2l9wg8Xfpjjbt6OwT-92" value="&lt;b style=&quot;forced-color-adjust: none; color: rgb(0, 0, 0); font-family: Helvetica; font-size: 12px; font-style: normal; font-variant-ligatures: normal; font-variant-caps: normal; letter-spacing: normal; orphans: 2; text-align: center; text-indent: 0px; text-transform: none; widows: 2; word-spacing: 0px; -webkit-text-stroke-width: 0px; white-space: nowrap; background-color: rgb(251, 251, 251); text-decoration-thickness: initial; text-decoration-style: initial; text-decoration-color: initial;&quot;&gt;&lt;font style=&quot;forced-color-adjust: none; color: rgb(0, 0, 0);&quot;&gt;172.19.0.8&lt;/font&gt;&lt;font style=&quot;forced-color-adjust: none; color: rgb(255, 0, 0);&quot;&gt;&amp;nbsp;&lt;/font&gt;&lt;/b&gt;" style="text;whiteSpace=wrap;html=1;" vertex="1" parent="1">
          <mxGeometry x="2000" y="374" width="90" height="40" as="geometry" />
        </mxCell>
        <mxCell id="ifr2l9wg8Xfpjjbt6OwT-93" value="" style="shape=flexArrow;endArrow=classic;html=1;rounded=0;exitX=0.504;exitY=0.956;exitDx=0;exitDy=0;exitPerimeter=0;" edge="1" parent="1">
          <mxGeometry width="50" height="50" relative="1" as="geometry">
            <mxPoint x="2269.58" y="616.25" as="sourcePoint" />
            <mxPoint x="2269.58" y="777.25" as="targetPoint" />
            <Array as="points">
              <mxPoint x="2269.58" y="687.25" />
            </Array>
          </mxGeometry>
        </mxCell>
        <mxCell id="ifr2l9wg8Xfpjjbt6OwT-94" value="&lt;font style=&quot;color: rgb(0, 0, 255);&quot;&gt;0100 1110 1010 1101 1010 1011 0110 0011 0100 1010 1011 0101&lt;/font&gt;" style="text;html=1;align=center;verticalAlign=middle;resizable=0;points=[];autosize=1;strokeColor=none;fillColor=none;" vertex="1" parent="1">
          <mxGeometry x="2085" y="792" width="370" height="30" as="geometry" />
        </mxCell>
        <mxCell id="ifr2l9wg8Xfpjjbt6OwT-95" value="" style="curved=1;endArrow=classic;html=1;rounded=0;" edge="1" parent="1">
          <mxGeometry width="50" height="50" relative="1" as="geometry">
            <mxPoint x="2710" y="454" as="sourcePoint" />
            <mxPoint x="2880" y="344" as="targetPoint" />
            <Array as="points">
              <mxPoint x="2760" y="454" />
              <mxPoint x="2760" y="484" />
              <mxPoint x="2750" y="434" />
              <mxPoint x="2850" y="474" />
              <mxPoint x="2710" y="404" />
              <mxPoint x="2890" y="454" />
            </Array>
          </mxGeometry>
        </mxCell>
        <mxCell id="ifr2l9wg8Xfpjjbt6OwT-96" value="&lt;font style=&quot;color: rgb(0, 0, 255); font-size: 16px;&quot;&gt;&lt;b&gt;Pysical Layer&lt;/b&gt;&lt;/font&gt;" style="text;html=1;align=center;verticalAlign=middle;resizable=0;points=[];autosize=1;strokeColor=none;fillColor=none;" vertex="1" parent="1">
          <mxGeometry x="2815" y="322.5" width="130" height="30" as="geometry" />
        </mxCell>
        <mxCell id="ifr2l9wg8Xfpjjbt6OwT-97" value="" style="endArrow=none;dashed=1;html=1;dashPattern=1 3;strokeWidth=2;rounded=0;exitX=0.489;exitY=-0.078;exitDx=0;exitDy=0;exitPerimeter=0;" edge="1" parent="1" source="ifr2l9wg8Xfpjjbt6OwT-96">
          <mxGeometry width="50" height="50" relative="1" as="geometry">
            <mxPoint x="2855" y="299" as="sourcePoint" />
            <mxPoint x="2880" y="144" as="targetPoint" />
          </mxGeometry>
        </mxCell>
        <mxCell id="ifr2l9wg8Xfpjjbt6OwT-98" value="&lt;font style=&quot;font-size: 15px; color: rgb(0, 0, 255);&quot;&gt;&lt;b&gt;Application layer&lt;/b&gt;&lt;/font&gt;" style="text;html=1;align=center;verticalAlign=middle;resizable=0;points=[];autosize=1;strokeColor=none;fillColor=none;" vertex="1" parent="1">
          <mxGeometry x="2810" y="114" width="140" height="30" as="geometry" />
        </mxCell>
        <mxCell id="ifr2l9wg8Xfpjjbt6OwT-126" value="" style="endArrow=classic;html=1;rounded=0;entryX=0.708;entryY=0.015;entryDx=0;entryDy=0;entryPerimeter=0;" edge="1" parent="1">
          <mxGeometry width="50" height="50" relative="1" as="geometry">
            <mxPoint x="121.00999999999999" y="387.85" as="sourcePoint" />
            <mxPoint x="122.00092000000018" y="596.7461500000001" as="targetPoint" />
          </mxGeometry>
        </mxCell>
        <mxCell id="ifr2l9wg8Xfpjjbt6OwT-1" value="" style="points=[];aspect=fixed;html=1;align=center;shadow=0;dashed=0;fillColor=#FF6A00;strokeColor=none;shape=mxgraph.alibaba_cloud.dns_domain_name_system;" vertex="1" parent="1">
          <mxGeometry x="40.01999999999999" y="599.9999999999999" width="128.49" height="126.41" as="geometry" />
        </mxCell>
        <mxCell id="ifr2l9wg8Xfpjjbt6OwT-175" value="" style="shape=flexArrow;endArrow=classic;html=1;rounded=0;exitX=1.005;exitY=0.283;exitDx=0;exitDy=0;exitPerimeter=0;" edge="1" parent="1" source="ifr2l9wg8Xfpjjbt6OwT-125">
          <mxGeometry width="50" height="50" relative="1" as="geometry">
            <mxPoint x="520" y="400" as="sourcePoint" />
            <mxPoint x="450" y="300" as="targetPoint" />
          </mxGeometry>
        </mxCell>
        <mxCell id="ifr2l9wg8Xfpjjbt6OwT-176" value="&lt;font style=&quot;font-size: 14px;&quot;&gt;&lt;b&gt;Data As Text&lt;/b&gt;&lt;/font&gt;" style="text;html=1;align=center;verticalAlign=middle;resizable=0;points=[];autosize=1;strokeColor=none;fillColor=none;" vertex="1" parent="1">
          <mxGeometry x="295" y="258" width="110" height="30" as="geometry" />
        </mxCell>
        <mxCell id="ifr2l9wg8Xfpjjbt6OwT-177" value="Presintation Layer" style="whiteSpace=wrap;html=1;fillColor=#FFD470;gradientColor=none;fontSize=14;strokeColor=none;verticalAlign=top;" vertex="1" parent="1">
          <mxGeometry x="450" y="140" width="308" height="280" as="geometry" />
        </mxCell>
        <mxCell id="ifr2l9wg8Xfpjjbt6OwT-178" value="" style="endArrow=classic;html=1;rounded=0;entryX=0.041;entryY=0.519;entryDx=0;entryDy=0;entryPerimeter=0;" edge="1" parent="1" target="ifr2l9wg8Xfpjjbt6OwT-179">
          <mxGeometry width="50" height="50" relative="1" as="geometry">
            <mxPoint x="460" y="220" as="sourcePoint" />
            <mxPoint x="530" y="220" as="targetPoint" />
          </mxGeometry>
        </mxCell>
        <mxCell id="ifr2l9wg8Xfpjjbt6OwT-179" value="0110 0011 1100&lt;div&gt;1100 0101 1100&lt;/div&gt;&lt;div&gt;1101 1010 0100&lt;/div&gt;" style="text;html=1;align=center;verticalAlign=middle;resizable=0;points=[];autosize=1;strokeColor=none;fillColor=none;" vertex="1" parent="1">
          <mxGeometry x="540" y="190" width="110" height="60" as="geometry" />
        </mxCell>
        <mxCell id="ifr2l9wg8Xfpjjbt6OwT-180" value="&lt;font style=&quot;font-size: 14px;&quot;&gt;Trnslation&lt;/font&gt;" style="text;html=1;align=center;verticalAlign=middle;resizable=0;points=[];autosize=1;strokeColor=none;fillColor=none;" vertex="1" parent="1">
          <mxGeometry x="460" y="190.25" width="80" height="30" as="geometry" />
        </mxCell>
        <mxCell id="ifr2l9wg8Xfpjjbt6OwT-181" value="" style="endArrow=classic;html=1;rounded=0;entryX=0.653;entryY=0.004;entryDx=0;entryDy=0;entryPerimeter=0;" edge="1" parent="1" target="ifr2l9wg8Xfpjjbt6OwT-182">
          <mxGeometry width="50" height="50" relative="1" as="geometry">
            <mxPoint x="650" y="220.25" as="sourcePoint" />
            <mxPoint x="720" y="300" as="targetPoint" />
            <Array as="points">
              <mxPoint x="730" y="220" />
            </Array>
          </mxGeometry>
        </mxCell>
        <mxCell id="ifr2l9wg8Xfpjjbt6OwT-182" value="0110 1100&lt;div&gt;1100 1100&lt;/div&gt;&lt;div&gt;&lt;br&gt;&lt;/div&gt;" style="text;html=1;align=center;verticalAlign=middle;resizable=0;points=[];autosize=1;strokeColor=none;fillColor=none;" vertex="1" parent="1">
          <mxGeometry x="678" y="293.5" width="80" height="60" as="geometry" />
        </mxCell>
        <mxCell id="ifr2l9wg8Xfpjjbt6OwT-184" value="Data&lt;div&gt;compression&lt;/div&gt;" style="text;html=1;align=center;verticalAlign=middle;resizable=0;points=[];autosize=1;strokeColor=none;fillColor=none;" vertex="1" parent="1">
          <mxGeometry x="660" y="175" width="90" height="40" as="geometry" />
        </mxCell>
        <mxCell id="ifr2l9wg8Xfpjjbt6OwT-185" value="" style="endArrow=classic;html=1;rounded=0;exitX=0.031;exitY=0.32;exitDx=0;exitDy=0;exitPerimeter=0;entryX=0.993;entryY=0.423;entryDx=0;entryDy=0;entryPerimeter=0;" edge="1" parent="1" source="ifr2l9wg8Xfpjjbt6OwT-182" target="ifr2l9wg8Xfpjjbt6OwT-186">
          <mxGeometry width="50" height="50" relative="1" as="geometry">
            <mxPoint x="678.0000000000001" y="316.50000000000006" as="sourcePoint" />
            <mxPoint x="620" y="320" as="targetPoint" />
          </mxGeometry>
        </mxCell>
        <mxCell id="ifr2l9wg8Xfpjjbt6OwT-186" value="*********" style="text;html=1;align=center;verticalAlign=middle;resizable=0;points=[];autosize=1;strokeColor=none;fillColor=none;" vertex="1" parent="1">
          <mxGeometry x="540" y="300" width="70" height="30" as="geometry" />
        </mxCell>
        <mxCell id="ifr2l9wg8Xfpjjbt6OwT-187" value="Ecryption" style="text;html=1;align=center;verticalAlign=middle;resizable=0;points=[];autosize=1;strokeColor=none;fillColor=none;" vertex="1" parent="1">
          <mxGeometry x="608" y="286.5" width="70" height="30" as="geometry" />
        </mxCell>
        <mxCell id="ifr2l9wg8Xfpjjbt6OwT-188" value="" style="html=1;verticalLabelPosition=bottom;strokeWidth=2;strokeColor=#0080F0;fillColor=strokeColor;shadow=0;dashed=0;shape=mxgraph.ios7.icons.orientation_lock;pointerEvents=1" vertex="1" parent="1">
          <mxGeometry x="563.45" y="286.5" width="23.099999999999998" height="21" as="geometry" />
        </mxCell>
        <mxCell id="ifr2l9wg8Xfpjjbt6OwT-190" value="" style="shape=flexArrow;endArrow=classic;html=1;rounded=0;entryX=0;entryY=0.5;entryDx=0;entryDy=0;" edge="1" parent="1" target="ifr2l9wg8Xfpjjbt6OwT-191">
          <mxGeometry width="50" height="50" relative="1" as="geometry">
            <mxPoint x="760" y="290" as="sourcePoint" />
            <mxPoint x="870" y="290" as="targetPoint" />
          </mxGeometry>
        </mxCell>
        <mxCell id="ifr2l9wg8Xfpjjbt6OwT-191" value="Trasport Layer" style="whiteSpace=wrap;html=1;fillColor=#FFD470;gradientColor=none;fontSize=14;strokeColor=none;verticalAlign=top;" vertex="1" parent="1">
          <mxGeometry x="890" y="147.5" width="308" height="280" as="geometry" />
        </mxCell>
        <mxCell id="ifr2l9wg8Xfpjjbt6OwT-192" value="" style="swimlane;startSize=0;" vertex="1" parent="1">
          <mxGeometry x="900" y="230" width="70" height="100" as="geometry" />
        </mxCell>
        <mxCell id="ifr2l9wg8Xfpjjbt6OwT-195" value="&lt;font style=&quot;font-size: 15px;&quot;&gt;&lt;b&gt;Data&lt;/b&gt;&lt;/font&gt;" style="text;html=1;align=center;verticalAlign=middle;resizable=0;points=[];autosize=1;strokeColor=none;fillColor=none;" vertex="1" parent="ifr2l9wg8Xfpjjbt6OwT-192">
          <mxGeometry x="5" y="35" width="60" height="30" as="geometry" />
        </mxCell>
        <mxCell id="ifr2l9wg8Xfpjjbt6OwT-193" value="Ecrypted Data" style="text;html=1;align=center;verticalAlign=middle;resizable=0;points=[];autosize=1;strokeColor=none;fillColor=none;" vertex="1" parent="1">
          <mxGeometry x="758" y="250" width="100" height="30" as="geometry" />
        </mxCell>
        <mxCell id="ifr2l9wg8Xfpjjbt6OwT-196" value="" style="endArrow=classic;html=1;rounded=0;exitX=0.99;exitY=0.482;exitDx=0;exitDy=0;exitPerimeter=0;" edge="1" parent="1" source="ifr2l9wg8Xfpjjbt6OwT-192">
          <mxGeometry width="50" height="50" relative="1" as="geometry">
            <mxPoint x="969.9999999999997" y="274.41999999999996" as="sourcePoint" />
            <mxPoint x="1020" y="280" as="targetPoint" />
          </mxGeometry>
        </mxCell>
        <mxCell id="ifr2l9wg8Xfpjjbt6OwT-198" value="" style="swimlane;startSize=0;" vertex="1" parent="1">
          <mxGeometry x="1020" y="238" width="20" height="20" as="geometry" />
        </mxCell>
        <mxCell id="ifr2l9wg8Xfpjjbt6OwT-199" value="" style="swimlane;startSize=0;" vertex="1" parent="1">
          <mxGeometry x="1060" y="230" width="20" height="20" as="geometry" />
        </mxCell>
        <mxCell id="ifr2l9wg8Xfpjjbt6OwT-200" value="" style="swimlane;startSize=0;" vertex="1" parent="1">
          <mxGeometry x="1050" y="258" width="20" height="20" as="geometry" />
        </mxCell>
        <mxCell id="ifr2l9wg8Xfpjjbt6OwT-201" value="" style="swimlane;startSize=0;" vertex="1" parent="1">
          <mxGeometry x="1060" y="286.5" width="20" height="20" as="geometry" />
        </mxCell>
        <mxCell id="ifr2l9wg8Xfpjjbt6OwT-202" value="" style="swimlane;startSize=0;" vertex="1" parent="1">
          <mxGeometry x="1020" y="282.5" width="20" height="20" as="geometry" />
        </mxCell>
        <mxCell id="ifr2l9wg8Xfpjjbt6OwT-206" value="" style="swimlane;startSize=0;" vertex="1" parent="1">
          <mxGeometry x="1080" y="258" width="20" height="20" as="geometry" />
        </mxCell>
        <mxCell id="ifr2l9wg8Xfpjjbt6OwT-207" value="" style="swimlane;startSize=0;" vertex="1" parent="1">
          <mxGeometry x="1040" y="309.5" width="20" height="20" as="geometry" />
        </mxCell>
        <mxCell id="ifr2l9wg8Xfpjjbt6OwT-209" value="Segments" style="text;html=1;align=center;verticalAlign=middle;resizable=0;points=[];autosize=1;strokeColor=none;fillColor=none;" vertex="1" parent="1">
          <mxGeometry x="1020" y="339.5" width="80" height="30" as="geometry" />
        </mxCell>
      </root>
    </mxGraphModel>
  </diagram>
</mxfile>
